<?xml version="1.0" encoding="UTF-8"?>
<svg width="40px" height="40px" viewBox="0 0 40 40" version="1.1" xmlns="http://www.w3.org/2000/svg" xmlns:xlink="http://www.w3.org/1999/xlink">
    <!-- Generator: Sketch 50.2 (55047) - http://www.bohemiancoding.com/sketch -->
    <title>支付宝</title>
    <desc>Created with Sketch.</desc>
    <defs></defs>
    <g id="Page-1" stroke="none" stroke-width="1" fill="none" fill-rule="evenodd">
        <g id="充值" transform="translate(-31.000000, -886.000000)" fill-rule="nonzero">
            <g id="支付宝" transform="translate(30.000000, 885.000000)">
                <rect id="Rectangle-path" fill="#000000" opacity="0" x="0" y="0" width="42" height="42"></rect>
                <path d="M40.6739648,28.2781406 L40.6739648,8.906625 C40.6739648,4.73082422 37.2851309,1.34199023 33.1068691,1.34199023 L8.89066992,1.34199023 C4.71486914,1.34199023 1.32603516,4.73082422 1.32603516,8.906625 L1.32603516,33.1228242 C1.32603516,37.298625 4.7124082,40.687459 8.89066992,40.687459 L33.1068691,40.687459 C36.8276836,40.687459 39.9239121,37.9970391 40.5559219,34.4581699 C38.5491914,33.5900742 29.8532637,29.8348066 25.323334,27.6730781 C21.8754785,31.8488789 18.2652832,34.3548516 12.8229609,34.3548516 C7.38063867,34.3548516 3.74833594,31.0028906 4.18359375,26.900877 C4.47131836,24.2079961 6.31821094,19.8059531 14.340252,20.5609277 C18.5676914,20.9568516 20.5031367,21.7462793 23.9509922,22.8849141 C24.8436973,21.249498 25.5839473,19.4493223 26.1470918,17.5336055 L10.8579434,17.5336055 L10.8579434,16.0186934 L18.4225781,16.0186934 L18.4225781,13.2987832 L9.19549805,13.2987832 L9.19549805,11.631416 L18.4225781,11.631416 L18.4225781,7.7064668 C18.4225781,7.7064668 18.506209,7.09164258 19.1849355,7.09164258 L22.9672324,7.09164258 L22.9672324,11.631416 L32.8042148,11.631416 L32.8042148,13.2987832 L22.9672324,13.2987832 L22.9672324,16.0186934 L30.9917754,16.0186934 C30.2539863,19.0214062 29.1350391,21.7806914 27.733248,24.1907695 C30.0646172,25.0342969 40.6738008,28.2780586 40.6738008,28.2780586 L40.6739648,28.2781406 Z M12.2204824,31.7579883 C6.47078906,31.7579883 5.56085742,28.1281465 5.86580859,26.6107734 C6.16829883,25.1007832 7.83320508,23.1309258 11.03025,23.1309258 C14.7043477,23.1309258 17.9948262,24.0703477 21.9443848,25.9934883 C19.170375,29.6061035 15.7618535,31.7579473 12.2205234,31.7579473 L12.2204824,31.7579883 Z" id="Shape" fill="#108EE9"></path>
            </g>
        </g>
    </g>
</svg>